<svg xmlns="http://www.w3.org/2000/svg" xmlns:xlink="http://www.w3.org/1999/xlink" width="1920" zoomAndPan="magnify" viewBox="0 0 1440 809.999993" height="1080" preserveAspectRatio="xMidYMid meet" version="1.0"><defs><clipPath id="29d24483b9"><path d="M 707 395.789062 L 732.371094 395.789062 L 732.371094 413 L 707 413 Z M 707 395.789062 " clip-rule="nonzero"/></clipPath></defs><g clip-path="url(#29d24483b9)"><path fill="#000000" d="M 732.164062 404.679688 C 732.265625 404.4375 732.265625 404.199219 732.164062 403.957031 C 732.113281 403.839844 732.042969 403.738281 731.953125 403.648438 L 724.1875 396.066406 C 724 395.878906 723.769531 395.789062 723.5 395.789062 C 723.234375 395.789062 723.003906 395.878906 722.816406 396.066406 C 722.625 396.25 722.53125 396.472656 722.53125 396.738281 C 722.53125 397 722.625 397.222656 722.8125 397.40625 L 728.921875 403.371094 L 707.976562 403.371094 C 707.710938 403.371094 707.480469 403.464844 707.289062 403.648438 C 707.101562 403.832031 707.007812 404.058594 707.007812 404.320312 C 707.007812 404.582031 707.101562 404.804688 707.289062 404.988281 C 707.480469 405.175781 707.710938 405.265625 707.976562 405.265625 L 728.921875 405.265625 L 722.816406 411.230469 C 722.625 411.414062 722.53125 411.640625 722.53125 411.902344 C 722.53125 412.164062 722.628906 412.386719 722.816406 412.570312 C 723.007812 412.757812 723.234375 412.847656 723.503906 412.847656 C 723.773438 412.851562 724 412.757812 724.191406 412.570312 L 731.953125 404.988281 C 732.042969 404.898438 732.113281 404.796875 732.164062 404.679688 Z M 732.164062 404.679688 " fill-opacity="1" fill-rule="nonzero"/><path fill="#000000" d="M 732.164062 404.679688 C 732.265625 404.4375 732.265625 404.199219 732.164062 403.957031 C 732.113281 403.839844 732.042969 403.738281 731.953125 403.648438 L 724.1875 396.066406 C 724 395.878906 723.769531 395.789062 723.5 395.789062 C 723.234375 395.789062 723.003906 395.878906 722.816406 396.066406 C 722.625 396.25 722.53125 396.472656 722.53125 396.738281 C 722.53125 397 722.625 397.222656 722.8125 397.40625 L 728.921875 403.371094 L 707.976562 403.371094 C 707.710938 403.371094 707.480469 403.464844 707.289062 403.648438 C 707.101562 403.832031 707.007812 404.058594 707.007812 404.320312 C 707.007812 404.582031 707.101562 404.804688 707.289062 404.988281 C 707.480469 405.175781 707.710938 405.265625 707.976562 405.265625 L 728.921875 405.265625 L 722.816406 411.230469 C 722.625 411.414062 722.53125 411.640625 722.53125 411.902344 C 722.53125 412.164062 722.628906 412.386719 722.816406 412.570312 C 723.007812 412.757812 723.234375 412.847656 723.503906 412.847656 C 723.773438 412.851562 724 412.757812 724.191406 412.570312 L 731.953125 404.988281 C 732.042969 404.898438 732.113281 404.796875 732.164062 404.679688 Z M 732.164062 404.679688 " fill-opacity="1" fill-rule="nonzero"/></g></svg>